<svg width="16" height="16" viewBox="0 0 16 16" fill="none" xmlns="http://www.w3.org/2000/svg">
<path d="M8 8.66666C9.10457 8.66666 10 7.77123 10 6.66666C10 5.56209 9.10457 4.66666 8 4.66666C6.89543 4.66666 6 5.56209 6 6.66666C6 7.77123 6.89543 8.66666 8 8.66666Z" stroke="black" stroke-opacity="0.67" stroke-width="2" stroke-linecap="round" stroke-linejoin="round"/>
<path d="M7.99996 1.33333C6.58547 1.33333 5.22892 1.89523 4.22872 2.89543C3.22853 3.89562 2.66663 5.25217 2.66663 6.66666C2.66663 7.928 2.93463 8.75333 3.66663 9.66666L7.99996 14.6667L12.3333 9.66666C13.0653 8.75333 13.3333 7.928 13.3333 6.66666C13.3333 5.25217 12.7714 3.89562 11.7712 2.89543C10.771 1.89523 9.41445 1.33333 7.99996 1.33333V1.33333Z" stroke="black" stroke-opacity="0.67" stroke-width="2" stroke-linecap="round" stroke-linejoin="round"/>
</svg>
