<svg width="17" height="16" viewBox="0 0 17 16" fill="none" xmlns="http://www.w3.org/2000/svg">
<g clip-path="url(#clip0_5_13)">
<path d="M16.9911 3.56952C17.0078 3.4741 16.9934 3.37624 16.9499 3.2884C16.816 2.74311 16.3908 2.46173 15.672 2.46173H1.8595C1.22731 2.46173 0.54623 2.67713 0.211294 3.09982C0.182324 3.12025 0.154699 3.14339 0.129747 3.17022C0.0226836 3.28469 -0.0147695 3.43192 0.00915332 3.57076C0.00437207 3.61064 0.00012207 3.65077 0.00012207 3.69262V11.5702C0.00012207 12.386 0.979482 13.2934 1.8595 13.2934H15.672C16.5523 13.2934 17.0001 12.386 17.0001 11.5702V3.69262C17.0001 3.64905 16.994 3.61088 16.9911 3.56952H16.9911ZM1.85943 3.44643L15.6719 3.44641H15.6791L8.50007 8.74927L1.34998 3.46808C1.51254 3.44026 1.71256 3.44643 1.85941 3.44643H1.85943ZM15.6719 12.3087H1.85946C1.56648 12.3087 1.06259 11.842 1.06259 11.5702V4.51654L8.15212 9.77311C8.252 9.85311 8.37603 9.89299 8.50007 9.89299C8.62792 9.89311 8.75154 9.85055 8.84831 9.77311L15.9376 4.51678V11.5702C15.9376 11.842 15.9652 12.3087 15.6719 12.3087Z" fill="black" fill-opacity="0.7"/>
</g>
<defs>
<clipPath id="clip0_5_13">
<rect width="17" height="15.7552" fill="white"/>
</clipPath>
</defs>
</svg>
